<?xml version="1.0" encoding="UTF-8" standalone="no"?><svg xmlns="http://www.w3.org/2000/svg" xmlns:xlink="http://www.w3.org/1999/xlink" data-name="Layer 1" fill="#ffffff" height="19" preserveAspectRatio="xMidYMid meet" version="1" viewBox="2.5 2.5 19.0 19.0" width="19" zoomAndPan="magnify"><g id="change1_1"><path d="M15,2.5H5A2.50263,2.50263,0,0,0,2.5,5V16a.49975.49975,0,0,0,.7998.3999L7.167,13.5H15A2.50263,2.50263,0,0,0,17.5,11V5A2.50263,2.50263,0,0,0,15,2.5ZM16.5,11A1.50164,1.50164,0,0,1,15,12.5H7a.4975.4975,0,0,0-.2998.1001L3.5,15V5A1.50164,1.50164,0,0,1,5,3.5H15A1.50164,1.50164,0,0,1,16.5,5Zm4,9V10A1.50164,1.50164,0,0,0,19,8.5v-1A2.50263,2.50263,0,0,1,21.5,10V21a.49975.49975,0,0,1-.7998.3999L16.833,18.5H9A2.50263,2.50263,0,0,1,6.5,16v-.12476l1-.75V16A1.50164,1.50164,0,0,0,9,17.5h8a.4975.4975,0,0,1,.2998.1001Z" fill="inherit"/></g></svg>